<svg id="Layer_1" data-name="Layer 1" xmlns="http://www.w3.org/2000/svg" viewBox="0 0 416.19 408.61"><defs><style>.cls-1{fill:#f6891f;}.cls-1,.cls-4{stroke:#231f20;stroke-miterlimit:10;stroke-width:28px;}.cls-2{fill:#231f20;}.cls-3{fill:#333;}.cls-4{fill:none;}</style></defs><title>Myphlogo</title><circle class="cls-1" cx="204.31" cy="204.31" r="190.31"/><path class="cls-2" d="M522.21,370.58q-3.48,7.68-7.68,18.48t-9.15,22.5q-4.94,11.71-10.52,23.23a165,165,0,0,1-11.71,20.58,75.88,75.88,0,0,1-12.62,14.73q-6.49,5.67-13.26,5.67a21.78,21.78,0,0,1-9.33-1.74,15,15,0,0,1-5.67-4.39,16.32,16.32,0,0,1-2.84-5.85,24.61,24.61,0,0,1-.82-6.13,31.1,31.1,0,0,1,1.37-9,47.52,47.52,0,0,1,3.38-8.42l70.07-129a73.1,73.1,0,0,1,8.69-12.62,36.71,36.71,0,0,1,7.68-6.77,18.23,18.23,0,0,1,6.31-2.65,28.75,28.75,0,0,1,4.57-.46,9.22,9.22,0,0,1,6,2.29q2.74,2.29,2.74,8.32,0,5.85-3.11,16.1t-11.53,26.34A153,153,0,0,0,563,337a99,99,0,0,0,25-10.34,58.23,58.23,0,0,0,17.84-16,36.5,36.5,0,0,0,6.77-21.86A61.71,61.71,0,0,0,609,267.85a52.06,52.06,0,0,0-10.43-17.56,49.74,49.74,0,0,0-16.92-12.07,56.61,56.61,0,0,0-23.23-4.48q-17.93,0-30.83,3.38A86,86,0,0,0,505.47,246,62.87,62.87,0,0,0,490,258.61a107.53,107.53,0,0,0-10.7,14.45q-4.48,7.32-8,14.45a100.1,100.1,0,0,1-7.23,12.62,34.85,34.85,0,0,1-8.51,8.87,19.68,19.68,0,0,1-11.71,3.38q-9,0-13.26-4.57t-4.3-13q0-8.42,4.57-18.39a90,90,0,0,1,13-20,129.5,129.5,0,0,1,20.4-19.3,148.4,148.4,0,0,1,27-16.37,168.83,168.83,0,0,1,32.66-11.43,156.87,156.87,0,0,1,37.23-4.3,118.92,118.92,0,0,1,35.22,5.21,89.21,89.21,0,0,1,29.91,15.64,76.71,76.71,0,0,1,20.76,26.07q7.78,15.64,7.78,36.68a66.28,66.28,0,0,1-9.24,34.67,83.29,83.29,0,0,1-24.88,26.16,121.89,121.89,0,0,1-36.13,16.47,158.75,158.75,0,0,1-43.18,5.76q-4.76,0-9.6-.18A83.93,83.93,0,0,1,522.21,370.58Z" transform="translate(-412.34 -140.02)"/><path class="cls-3" d="M756.81,394.73a11.22,11.22,0,0,0-1.56.09,9.72,9.72,0,0,1-1.37.09q-9,20.12-15.83,35.31t-10.52,22a48.57,48.57,0,0,1-7,9.88,44.41,44.41,0,0,1-8.32,7,35.56,35.56,0,0,1-8.87,4.21,28.56,28.56,0,0,1-8.32,1.37,16,16,0,0,1-9.51-2.74q-3.84-2.74-3.84-8.23a27.6,27.6,0,0,1,2.93-11.16l26.34-55.8q-19.94.73-38.33,1.28t-35.4.91a334,334,0,0,1-18.48,33,177.83,177.83,0,0,1-20.86,27A98.31,98.31,0,0,1,575,477.15a49.78,49.78,0,0,1-24.7,6.68A34.54,34.54,0,0,1,532,478.7a18.81,18.81,0,0,1-5.58-4.12,38.37,38.37,0,0,1-5.58-7.23,48.48,48.48,0,0,1-4.3-9.15,30.11,30.11,0,0,1-1.74-10.06,19.74,19.74,0,0,1,1.28-7,25.59,25.59,0,0,1,3.66-6.49q1.1-1.28,2.56-3.29a29.24,29.24,0,0,1,3.48-3.93,21.29,21.29,0,0,1,4.3-3.2,10.12,10.12,0,0,1,5-1.28,9,9,0,0,1,2.2.27,5.22,5.22,0,0,1,2,1q1.83,1.1,3.57,4.94t3.84,8a46.5,46.5,0,0,0,4.67,7.41,7.5,7.5,0,0,0,6,3.29,16.68,16.68,0,0,0,10-3.75,55.55,55.55,0,0,0,10.25-10.43,132.61,132.61,0,0,0,10.52-16q5.31-9.33,10.61-20.31-5.85-1.83-8.23-5.21a12.08,12.08,0,0,1-2.38-7,7.3,7.3,0,0,1,1.65-4.39,15.5,15.5,0,0,1,4.57-3.93,34.12,34.12,0,0,1,6.86-3,32,32,0,0,1,8.69-1.46q6.59-16.1,12.62-33.48t11.53-34q5.49-16.65,10.06-31.93t8-27.35q3.48-12.07,5.67-19.94t2.74-9.88a13,13,0,0,1,5.58-8.23,16.49,16.49,0,0,1,8.87-2.56q7.14,0,10.89,4.67t3.75,16.92v3q0,1.56-.18,3.38-0.37,4.76-1.83,12.9t-3.84,18.75q-2.38,10.61-5.85,23.33t-7.78,26.53q-4.3,13.81-9.51,28.45t-11.25,29.09h12.44q6.77,0,15.28.09t19.3,0.37l24.7,0.64a0.81,0.81,0,0,1,.37.09,0.81,0.81,0,0,0,.37.09q16.1-33.85,30.55-63.76t26.53-52.32q12.07-22.41,21.41-35.4t15.37-13q6.4,0,9.6,3a10.66,10.66,0,0,1,3.2,8.14,16.68,16.68,0,0,1-.64,4.85,46,46,0,0,1-1.74,4.67q-4.76,11.53-12.07,28.36T798.16,294l-17.84,40.43q-9.24,20.95-17.84,40.52a32.77,32.77,0,0,1,9.06,3q3.57,1.92,3.57,5,0,4-4.21,7.59T756.81,394.73Z" transform="translate(-412.34 -140.02)"/><circle class="cls-4" cx="204.31" cy="204.31" r="190.31"/></svg>